<svg xmlns="http://www.w3.org/2000/svg" xmlns:xlink="http://www.w3.org/1999/xlink" viewBox="0 0 612 792"><defs><style>.cls-1{mask:url(#mask);filter:url(#luminosity-noclip-11);}.cls-10,.cls-12,.cls-14,.cls-16,.cls-18,.cls-2,.cls-20,.cls-28,.cls-30,.cls-36,.cls-4,.cls-41,.cls-43,.cls-45,.cls-6,.cls-8{mix-blend-mode:multiply;}.cls-2{fill:url(#linear-gradient);}.cls-3{mask:url(#mask-2);filter:url(#luminosity-noclip-16);}.cls-4{fill:url(#linear-gradient-2);}.cls-5{mask:url(#mask-3);filter:url(#luminosity-noclip-17);}.cls-6{fill:url(#linear-gradient-3);}.cls-7{mask:url(#mask-4);filter:url(#luminosity-noclip-18);}.cls-8{fill:url(#linear-gradient-4);}.cls-9{mask:url(#mask-5);filter:url(#luminosity-noclip-19);}.cls-10{fill:url(#linear-gradient-5);}.cls-11{mask:url(#mask-6);filter:url(#luminosity-noclip-20);}.cls-12{fill:url(#linear-gradient-6);}.cls-13{mask:url(#mask-7);filter:url(#luminosity-noclip-12);}.cls-14{fill:url(#linear-gradient-7);}.cls-15{mask:url(#mask-8);filter:url(#luminosity-noclip-13);}.cls-16{fill:url(#linear-gradient-8);}.cls-17{mask:url(#mask-9);filter:url(#luminosity-noclip-14);}.cls-18{fill:url(#linear-gradient-9);}.cls-19{mask:url(#mask-10);filter:url(#luminosity-noclip-15);}.cls-20{fill:url(#linear-gradient-10);}.cls-21{isolation:isolate;}.cls-22{fill:#525e66;}.cls-23{fill:none;}.cls-24{fill:url(#linear-gradient-11);}.cls-25{fill:url(#linear-gradient-12);}.cls-26{fill:url(#linear-gradient-13);}.cls-27{mask:url(#mask-11);}.cls-28{fill:url(#linear-gradient-14);}.cls-29{mask:url(#mask-12);}.cls-30{fill:url(#linear-gradient-15);}.cls-31{mask:url(#mask-13);}.cls-32,.cls-34,.cls-47,.cls-49{mix-blend-mode:overlay;}.cls-32{fill:url(#linear-gradient-16);}.cls-33{mask:url(#mask-14);}.cls-34{fill:url(#linear-gradient-17);}.cls-35{mask:url(#mask-15);}.cls-36{fill:url(#linear-gradient-18);}.cls-37{fill:url(#linear-gradient-19);}.cls-38{fill:url(#linear-gradient-20);}.cls-39{fill:url(#linear-gradient-21);}.cls-40{mask:url(#mask-16);}.cls-41{fill:url(#linear-gradient-22);}.cls-42{mask:url(#mask-17);}.cls-43{fill:url(#linear-gradient-23);}.cls-44{mask:url(#mask-18);}.cls-45{fill:url(#linear-gradient-24);}.cls-46{mask:url(#mask-19);}.cls-47{fill:url(#linear-gradient-25);}.cls-48{mask:url(#mask-20);}.cls-49{fill:url(#linear-gradient-26);}.cls-50{filter:url(#luminosity-noclip-10);}.cls-51{filter:url(#luminosity-noclip-9);}.cls-52{filter:url(#luminosity-noclip-8);}.cls-53{filter:url(#luminosity-noclip-7);}.cls-54{filter:url(#luminosity-noclip-6);}.cls-55{filter:url(#luminosity-noclip-5);}.cls-56{filter:url(#luminosity-noclip-4);}.cls-57{filter:url(#luminosity-noclip-3);}.cls-58{filter:url(#luminosity-noclip-2);}.cls-59{filter:url(#luminosity-noclip);}</style><filter id="luminosity-noclip" x="367.61" y="-8588" width="121.76" height="32766" filterUnits="userSpaceOnUse" color-interpolation-filters="sRGB"><feFlood flood-color="#fff" result="bg"/><feBlend in="SourceGraphic" in2="bg"/></filter><mask id="mask" x="367.61" y="-8588" width="121.76" height="32766" maskUnits="userSpaceOnUse"><g class="cls-59"/></mask><linearGradient id="linear-gradient" x1="383.42" y1="326.76" x2="468.75" y2="502.56" gradientUnits="userSpaceOnUse"><stop offset="0" stop-color="gray"/><stop offset="0.18" stop-color="#7c7c7c"/><stop offset="0.35" stop-color="#707070"/><stop offset="0.53" stop-color="#5c5c5c"/><stop offset="0.71" stop-color="#404040"/><stop offset="0.88" stop-color="#1c1c1c"/><stop offset="1"/></linearGradient><filter id="luminosity-noclip-2" x="119.51" y="-8588" width="138.42" height="32766" filterUnits="userSpaceOnUse" color-interpolation-filters="sRGB"><feFlood flood-color="#fff" result="bg"/><feBlend in="SourceGraphic" in2="bg"/></filter><mask id="mask-2" x="119.51" y="-8588" width="138.42" height="32766" maskUnits="userSpaceOnUse"><g class="cls-58"/></mask><linearGradient id="linear-gradient-2" x1="134.87" y1="300.42" x2="231.61" y2="254.05" xlink:href="#linear-gradient"/><filter id="luminosity-noclip-3" x="114.19" y="-8588" width="70.53" height="32766" filterUnits="userSpaceOnUse" color-interpolation-filters="sRGB"><feFlood flood-color="#fff" result="bg"/><feBlend in="SourceGraphic" in2="bg"/></filter><mask id="mask-3" x="114.19" y="-8588" width="70.53" height="32766" maskUnits="userSpaceOnUse"><g class="cls-57"/></mask><linearGradient id="linear-gradient-3" x1="114.19" y1="401.02" x2="184.72" y2="401.02" xlink:href="#linear-gradient"/><filter id="luminosity-noclip-4" x="216.66" y="-8588" width="32.47" height="32766" filterUnits="userSpaceOnUse" color-interpolation-filters="sRGB"><feFlood flood-color="#fff" result="bg"/><feBlend in="SourceGraphic" in2="bg"/></filter><mask id="mask-4" x="216.66" y="-8588" width="32.47" height="32766" maskUnits="userSpaceOnUse"><g class="cls-56"/></mask><linearGradient id="linear-gradient-4" x1="233.39" y1="418.07" x2="232.52" y2="456.03" xlink:href="#linear-gradient"/><filter id="luminosity-noclip-5" x="68.53" y="-8588" width="156.02" height="32766" filterUnits="userSpaceOnUse" color-interpolation-filters="sRGB"><feFlood flood-color="#fff" result="bg"/><feBlend in="SourceGraphic" in2="bg"/></filter><mask id="mask-5" x="68.53" y="-8588" width="156.02" height="32766" maskUnits="userSpaceOnUse"><g class="cls-55"/></mask><linearGradient id="linear-gradient-5" x1="167.03" y1="252.72" x2="63.33" y2="381.63" gradientUnits="userSpaceOnUse"><stop offset="0.12" stop-color="#666"/><stop offset="0.28" stop-color="#626262"/><stop offset="0.46" stop-color="#555"/><stop offset="0.64" stop-color="#3f3f3f"/><stop offset="0.83" stop-color="#212121"/><stop offset="1"/></linearGradient><filter id="luminosity-noclip-6" x="229.42" y="-8588" width="43.89" height="32766" filterUnits="userSpaceOnUse" color-interpolation-filters="sRGB"><feFlood flood-color="#fff" result="bg"/><feBlend in="SourceGraphic" in2="bg"/></filter><mask id="mask-6" x="229.42" y="-8588" width="43.89" height="32766" maskUnits="userSpaceOnUse"><g class="cls-54"/></mask><linearGradient id="linear-gradient-6" x1="251.37" y1="461.55" x2="251.37" y2="292.54" gradientUnits="userSpaceOnUse"><stop offset="0.16" stop-color="#999"/><stop offset="0.51" stop-color="#979797"/><stop offset="0.63" stop-color="#909090"/><stop offset="0.72" stop-color="#858585"/><stop offset="0.79" stop-color="#747474"/><stop offset="0.85" stop-color="#5e5e5e"/><stop offset="0.91" stop-color="#424242"/><stop offset="0.96" stop-color="#232323"/><stop offset="1"/></linearGradient><filter id="luminosity-noclip-7" x="438.78" y="-8588" width="109.88" height="32766" filterUnits="userSpaceOnUse" color-interpolation-filters="sRGB"><feFlood flood-color="#fff" result="bg"/><feBlend in="SourceGraphic" in2="bg"/></filter><mask id="mask-7" x="438.78" y="-8588" width="109.88" height="32766" maskUnits="userSpaceOnUse"><g class="cls-53"/></mask><linearGradient id="linear-gradient-7" x1="452.98" y1="261.31" x2="546" y2="370.03" xlink:href="#linear-gradient"/><filter id="luminosity-noclip-8" x="367.83" y="-8588" width="183.37" height="32766" filterUnits="userSpaceOnUse" color-interpolation-filters="sRGB"><feFlood flood-color="#fff" result="bg"/><feBlend in="SourceGraphic" in2="bg"/></filter><mask id="mask-8" x="367.83" y="-8588" width="183.37" height="32766" maskUnits="userSpaceOnUse"><g class="cls-52"/></mask><linearGradient id="linear-gradient-8" x1="504.24" y1="398.74" x2="382.83" y2="104.86" xlink:href="#linear-gradient-5"/><filter id="luminosity-noclip-9" x="319.92" y="-8588" width="140.76" height="32766" filterUnits="userSpaceOnUse" color-interpolation-filters="sRGB"><feFlood flood-color="#fff" result="bg"/><feBlend in="SourceGraphic" in2="bg"/></filter><mask id="mask-9" x="319.92" y="-8588" width="140.76" height="32766" maskUnits="userSpaceOnUse"><g class="cls-51"/></mask><linearGradient id="linear-gradient-9" x1="406.29" y1="455.06" x2="281.95" y2="142.21" gradientUnits="userSpaceOnUse"><stop offset="0.22" stop-color="gray"/><stop offset="0.35" stop-color="#7c7c7c"/><stop offset="0.49" stop-color="#6f6f6f"/><stop offset="0.63" stop-color="#595959"/><stop offset="0.78" stop-color="#3b3b3b"/><stop offset="0.93" stop-color="#151515"/><stop offset="1"/></linearGradient><filter id="luminosity-noclip-10" x="367.78" y="-8588" width="33.73" height="32766" filterUnits="userSpaceOnUse" color-interpolation-filters="sRGB"><feFlood flood-color="#fff" result="bg"/><feBlend in="SourceGraphic" in2="bg"/></filter><mask id="mask-10" x="367.78" y="-8588" width="33.73" height="32766" maskUnits="userSpaceOnUse"><g class="cls-50"/></mask><linearGradient id="linear-gradient-10" x1="383.4" y1="277.04" x2="359.73" y2="233.64" xlink:href="#linear-gradient"/><linearGradient id="linear-gradient-11" x1="383.46" y1="215.84" x2="392.13" y2="448.06" gradientUnits="userSpaceOnUse"><stop offset="0" stop-color="#f78d1e"/><stop offset="0.33" stop-color="#ee3424"/><stop offset="0.43" stop-color="#e83124"/><stop offset="0.56" stop-color="#d72926"/><stop offset="0.66" stop-color="#c62127"/><stop offset="1" stop-color="#881d57"/></linearGradient><linearGradient id="linear-gradient-12" x1="500.21" y1="400.4" x2="378.8" y2="106.53" gradientUnits="userSpaceOnUse"><stop offset="0.01" stop-color="#61c7cf"/><stop offset="0.5" stop-color="#00aca3"/><stop offset="1" stop-color="#0472b7"/></linearGradient><linearGradient id="linear-gradient-13" x1="519.48" y1="288.46" x2="384.59" y2="464.78" gradientUnits="userSpaceOnUse"><stop offset="0" stop-color="#d4196e"/><stop offset="0.47" stop-color="#6b3088"/><stop offset="1" stop-color="#18112a"/></linearGradient><filter id="luminosity-noclip-11" x="367.61" y="347.71" width="121.76" height="111.98" filterUnits="userSpaceOnUse" color-interpolation-filters="sRGB"><feFlood flood-color="#fff" result="bg"/><feBlend in="SourceGraphic" in2="bg"/></filter><mask id="mask-11" x="367.61" y="347.71" width="121.76" height="111.98" maskUnits="userSpaceOnUse"><g class="cls-1"><path class="cls-2" d="M489.37,449a107.77,107.77,0,0,1-28.26,10.36c-102.53,7.25-93.28-111.66-93.28-111.66s0,.62,0,1.78c0,.67.07,1.32.1,2,.13,2,.35,4.61.77,7.83C372.43,388.77,391.46,463.21,489.37,449Z"/></g></mask><linearGradient id="linear-gradient-14" x1="383.42" y1="326.76" x2="468.75" y2="502.56" gradientUnits="userSpaceOnUse"><stop offset="0" stop-color="#010101"/><stop offset="0.13" stop-color="#050505"/><stop offset="0.25" stop-color="#111"/><stop offset="0.38" stop-color="#252525"/><stop offset="0.5" stop-color="#414141"/><stop offset="0.63" stop-color="#666"/><stop offset="0.76" stop-color="#929292"/><stop offset="0.88" stop-color="#c6c6c6"/><stop offset="1" stop-color="#fff"/></linearGradient><filter id="luminosity-noclip-12" x="438.78" y="279.37" width="109.88" height="116.95" filterUnits="userSpaceOnUse" color-interpolation-filters="sRGB"><feFlood flood-color="#fff" result="bg"/><feBlend in="SourceGraphic" in2="bg"/></filter><mask id="mask-12" x="438.78" y="279.37" width="109.88" height="116.95" maskUnits="userSpaceOnUse"><g class="cls-13"><path class="cls-14" d="M548.67,372.43a103.24,103.24,0,0,1-8.2,23.88c-14.18-112.45-97.16-116.73-98.35-116.73h0c-1.08-.11-2.17-.18-3.3-.21.84,0,54.8.1,86.8,32.47C539.06,325.5,548.67,344.89,548.67,372.43Z"/></g></mask><linearGradient id="linear-gradient-15" x1="452.98" y1="261.31" x2="546" y2="370.03" xlink:href="#linear-gradient-14"/><filter id="luminosity-noclip-13" x="367.83" y="233.92" width="183.37" height="138.51" filterUnits="userSpaceOnUse" color-interpolation-filters="sRGB"><feFlood flood-color="#fff" result="bg"/><feBlend in="SourceGraphic" in2="bg"/></filter><mask id="mask-13" x="367.83" y="233.92" width="183.37" height="138.51" maskUnits="userSpaceOnUse"><g class="cls-15"><path class="cls-16" d="M548.67,372.43s8.53-97.78-85-114c-23.7-4.11-95.79-2-95.79-2V233.92h67.58q47.63,0,81.73,33.23t34.06,80.56A119.85,119.85,0,0,1,548.67,372.43Z"/></g></mask><linearGradient id="linear-gradient-16" x1="504.24" y1="398.74" x2="382.83" y2="104.86" gradientUnits="userSpaceOnUse"><stop offset="0.12" stop-color="#fff"/><stop offset="0.22" stop-color="#fbfefd"/><stop offset="0.33" stop-color="#eef9f9"/><stop offset="0.44" stop-color="#d8f2f1"/><stop offset="0.56" stop-color="#bae8e6"/><stop offset="0.68" stop-color="#93dcd8"/><stop offset="0.8" stop-color="#63ccc7"/><stop offset="0.92" stop-color="#2cbab3"/><stop offset="1" stop-color="#00aca3"/></linearGradient><filter id="luminosity-noclip-14" x="319.92" y="177.17" width="140.76" height="284.92" filterUnits="userSpaceOnUse" color-interpolation-filters="sRGB"><feFlood flood-color="#fff" result="bg"/><feBlend in="SourceGraphic" in2="bg"/></filter><mask id="mask-14" x="319.92" y="177.17" width="140.76" height="284.92" maskUnits="userSpaceOnUse"><g class="cls-17"><path class="cls-18" d="M460.67,459.41v0a119.61,119.61,0,0,1-25.26,2.65q-47.3,0-81.39-33.52t-34.1-80.86V177.17c3.29,0,7.68,2.61,11.63,6.59,5.22,5.26,9.64,12.87,9.64,19.83,0,23.95-.22,60-.8,114.15-.72,66.94,19.72,102.74,44,121.7h0C418.74,466.33,460.67,459.41,460.67,459.41Z"/></g></mask><linearGradient id="linear-gradient-17" x1="406.29" y1="455.06" x2="281.95" y2="142.21" gradientUnits="userSpaceOnUse"><stop offset="0.22" stop-color="#fff"/><stop offset="0.31" stop-color="#fbfefd"/><stop offset="0.41" stop-color="#eef9f9"/><stop offset="0.51" stop-color="#d8f2f1"/><stop offset="0.61" stop-color="#bae8e6"/><stop offset="0.71" stop-color="#93dcd8"/><stop offset="0.82" stop-color="#63ccc7"/><stop offset="0.93" stop-color="#2cbab3"/><stop offset="1" stop-color="#00aca3"/></linearGradient><filter id="luminosity-noclip-15" x="367.78" y="233.93" width="33.73" height="45.44" filterUnits="userSpaceOnUse" color-interpolation-filters="sRGB"><feFlood flood-color="#fff" result="bg"/><feBlend in="SourceGraphic" in2="bg"/></filter><mask id="mask-15" x="367.78" y="233.93" width="33.73" height="45.44" maskUnits="userSpaceOnUse"><g class="cls-19"><path class="cls-20" d="M367.84,233.93s-3,32.63,33.67,45.44H367.83Z"/></g></mask><linearGradient id="linear-gradient-18" x1="383.4" y1="277.04" x2="359.73" y2="233.64" xlink:href="#linear-gradient-14"/><linearGradient id="linear-gradient-19" x1="68.53" y1="348.89" x2="224.56" y2="348.89" xlink:href="#linear-gradient-12"/><linearGradient id="linear-gradient-20" x1="190.55" y1="291.19" x2="282.43" y2="482.24" xlink:href="#linear-gradient-11"/><linearGradient id="linear-gradient-21" x1="108.32" y1="378.67" x2="331.49" y2="521.12" xlink:href="#linear-gradient-13"/><filter id="luminosity-noclip-16" x="119.51" y="245.15" width="138.42" height="82.4" filterUnits="userSpaceOnUse" color-interpolation-filters="sRGB"><feFlood flood-color="#fff" result="bg"/><feBlend in="SourceGraphic" in2="bg"/></filter><mask id="mask-16" x="119.51" y="245.15" width="138.42" height="82.4" maskUnits="userSpaceOnUse"><g class="cls-3"><path class="cls-4" d="M257.93,265.8C152,249.43,124.39,313,119.51,327.55c14-47.82,54.35-82.4,102-82.4,1,0,2,.07,3,.1A112.49,112.49,0,0,1,257.93,265.8Z"/></g></mask><linearGradient id="linear-gradient-22" x1="134.87" y1="300.42" x2="231.61" y2="254.05" xlink:href="#linear-gradient-14"/><filter id="luminosity-noclip-17" x="114.19" y="339.11" width="70.53" height="123.82" filterUnits="userSpaceOnUse" color-interpolation-filters="sRGB"><feFlood flood-color="#fff" result="bg"/><feBlend in="SourceGraphic" in2="bg"/></filter><mask id="mask-17" x="114.19" y="339.11" width="70.53" height="123.82" maskUnits="userSpaceOnUse"><g class="cls-5"><path class="cls-6" d="M184.72,462.93h-2.09a119.54,119.54,0,0,1-25.49-2.69c-26.07-21.79-42.95-56.5-42.95-95.61a129.62,129.62,0,0,1,2.51-25.52C114.74,350.63,107.42,416.6,184.72,462.93Z"/></g></mask><linearGradient id="linear-gradient-23" x1="114.19" y1="401.02" x2="184.72" y2="401.02" xlink:href="#linear-gradient-14"/><filter id="luminosity-noclip-18" x="216.66" y="418.12" width="32.47" height="44.81" filterUnits="userSpaceOnUse" color-interpolation-filters="sRGB"><feFlood flood-color="#fff" result="bg"/><feBlend in="SourceGraphic" in2="bg"/></filter><mask id="mask-18" x="216.66" y="418.12" width="32.47" height="44.81" maskUnits="userSpaceOnUse"><g class="cls-7"><path class="cls-8" d="M249.1,462.93s-4.41-35.66-32.44-44.81h32.47Z"/></g></mask><linearGradient id="linear-gradient-24" x1="233.39" y1="418.07" x2="232.52" y2="456.03" xlink:href="#linear-gradient-14"/><filter id="luminosity-noclip-19" x="68.53" y="237.55" width="156.02" height="135.66" filterUnits="userSpaceOnUse" color-interpolation-filters="sRGB"><feFlood flood-color="#fff" result="bg"/><feBlend in="SourceGraphic" in2="bg"/></filter><mask id="mask-19" x="68.53" y="237.55" width="156.02" height="135.66" maskUnits="userSpaceOnUse"><g class="cls-9"><path class="cls-10" d="M224.56,245.25s-136-19.92-153.87,128a117.1,117.1,0,0,1-2.16-22.7q0-46.74,33.67-79.83t80.43-33.13c3,0,5.86.1,8.74.32A110.7,110.7,0,0,1,224.56,245.25Z"/></g></mask><linearGradient id="linear-gradient-25" x1="167.03" y1="252.72" x2="63.33" y2="381.63" xlink:href="#linear-gradient-16"/><filter id="luminosity-noclip-20" x="229.42" y="302.46" width="43.89" height="160.46" filterUnits="userSpaceOnUse" color-interpolation-filters="sRGB"><feFlood flood-color="#fff" result="bg"/><feBlend in="SourceGraphic" in2="bg"/></filter><mask id="mask-20" x="229.42" y="302.46" width="43.89" height="160.46" maskUnits="userSpaceOnUse"><g class="cls-11"><path class="cls-12" d="M273.22,373.21v89.71H248.79V350.51q0-27.86-19.37-48.05C277.27,317.54,273.22,373.21,273.22,373.21Z"/></g></mask><linearGradient id="linear-gradient-26" x1="251.37" y1="461.55" x2="251.37" y2="292.54" gradientUnits="userSpaceOnUse"><stop offset="0.16" stop-color="#fff"/><stop offset="0.47" stop-color="#fdfefe"/><stop offset="0.59" stop-color="#f6fcfc"/><stop offset="0.67" stop-color="#ebf8f8"/><stop offset="0.73" stop-color="#daf3f2"/><stop offset="0.79" stop-color="#c4ecea"/><stop offset="0.84" stop-color="#a8e3e0"/><stop offset="0.88" stop-color="#88d8d4"/><stop offset="0.92" stop-color="#62ccc6"/><stop offset="0.96" stop-color="#37beb7"/><stop offset="0.99" stop-color="#09afa6"/><stop offset="1" stop-color="#00aca3"/></linearGradient></defs><title>Artboard 1</title><g class="cls-21"><g id="andrew_brudnak_logo" data-name="andrew brudnak logo"><g id="Color_" data-name="Color +"><g id="Name"><path class="cls-22" d="M84.52,546.77h-5.2s-8.51.36-14,.36a19.23,19.23,0,1,1,19.19-19.26Zm-5.2-18.9a14,14,0,1,0-14,14h14Zm449.53,18.9h-5.2s-8.5.36-14,.36a19.23,19.23,0,1,1,19.19-19.26Zm-5.2-18.9a14,14,0,1,0-14,14h14Zm-397.11,18.9h-5.2V528a14,14,0,1,0-28,0v18.76h-5.2v-18.9a19.19,19.19,0,1,1,38.37.14ZM300,503.55s5.2.57,5.2,5.45v5.72a19.25,19.25,0,1,1-5.2,13.15Zm5.2,24.32a14,14,0,1,0,14-14A14,14,0,0,0,305.24,527.87Zm56.08-19.26v5.2a14.08,14.08,0,0,0-14,14.06v18.9h-5.2v-18.9A19.26,19.26,0,0,1,361.32,508.61Zm126.09,38.16H482.2V528a14,14,0,1,0-28,0v18.76H449v-18.9a19.19,19.19,0,0,1,38.38.14ZM398.15,509.1v18.77a14,14,0,1,1-28,0v-9.25h0v-4.56c0-4.88-5.2-5.45-5.2-5.45v19.26a19.19,19.19,0,1,0,38.37.14V509.1Zm158.27,13.36a19.18,19.18,0,0,0,7.59-12.3h-5.34c-1.34,6-6.54,10.89-12.79,10.89h-7.59v-8.68h0V509c0-4.88-5.21-5.45-5.21-5.45v43.22h5.21V526.11h10.82a14.17,14.17,0,0,1,14.06,14.13v6.53h5.2v-6.53A19.33,19.33,0,0,0,556.42,522.46Zm-388,5.23a19.2,19.2,0,1,1-5.21-13.14v-5.73c0-4.87,5.21-5.45,5.21-5.45Zm-19.19-14a14,14,0,1,0,14,14A14,14,0,0,0,149.27,513.71Zm296.31,14.16a19.17,19.17,0,1,1-5.2-13.15V509c0-4.88,5.2-5.45,5.2-5.45Zm-19.19-14a14,14,0,1,0,14,14A14,14,0,0,0,426.39,513.88Z"/><path class="cls-22" d="M189.2,509.75v4.9A13.25,13.25,0,0,0,176,527.87v17.79h-4.89V527.87A18.14,18.14,0,0,1,189.2,509.75Z"/><path class="cls-22" d="M199.77,535.3a16.64,16.64,0,0,0,1.63,2,13.26,13.26,0,0,0,16.79,1.54l3.51,3.51a18.11,18.11,0,1,1,5.56-7.06Zm-2-4.87h25.91A13.23,13.23,0,0,0,201.4,518.6,13.18,13.18,0,0,0,197.8,530.43Z"/><path class="cls-22" d="M237,510V533a8.1,8.1,0,0,0,16.2-.06V510h5V533a8.1,8.1,0,0,0,16.2-.06V510h4.9V533a13,13,0,0,1-13,13,12.81,12.81,0,0,1-10.51-5.42,13,13,0,0,1-23.61-7.6V510Z"/></g><g id="ab_Color_" data-name="ab Color +"><path class="cls-23" d="M435.29,279.28H367.84v68.44a67.77,67.77,0,0,0,19.57,48.63q19.59,20.38,47.88,20.39t47.86-20.39a67.78,67.78,0,0,0,19.58-48.63q0-28.23-19.58-48.34T435.29,279.28Z"/><path class="cls-23" d="M367.84,347.72a67.77,67.77,0,0,0,19.57,48.63q19.59,20.38,47.88,20.39t47.86-20.39a67.78,67.78,0,0,0,19.58-48.63q0-28.23-19.58-48.34t-47.86-20.1H367.84v68.44Z"/><path class="cls-23" d="M367.84,347.72a67.77,67.77,0,0,0,19.57,48.63q19.59,20.38,47.88,20.39t47.86-20.39a67.78,67.78,0,0,0,19.58-48.63q0-28.23-19.58-48.34t-47.86-20.1H367.84v68.44Z"/><path class="cls-24" d="M461.11,459.37a1.68,1.68,0,0,1-.44.07,119.61,119.61,0,0,1-25.26,2.65q-47.3,0-81.39-33.52t-34.1-80.86V177.17a46.76,46.76,0,0,1,21.2,4.85,50.78,50.78,0,0,1,12.61,9.28,46.14,46.14,0,0,1,14.1,33.41v123s-9.21,118.58,92.84,111.7C460.82,459.41,461,459.37,461.11,459.37Z"/><path class="cls-25" d="M551.2,347.71a119.85,119.85,0,0,1-2.53,24.72c0-27.54-9.61-46.93-23.09-60.59-32-32.37-86-32.47-86.8-32.47-1.16,0-2.31-.08-3.51-.08H367.83V233.92h67.58q47.63,0,81.73,33.23T551.2,347.71Z"/><path class="cls-26" d="M548.67,372.43a103.24,103.24,0,0,1-8.2,23.88v0A115.42,115.42,0,0,1,517,428.57,120.71,120.71,0,0,1,489.41,449h0a107.77,107.77,0,0,1-28.26,10.36c-102.53,7.25-93.28-111.66-93.28-111.66s0,.62,0,1.78a67,67,0,0,0,.87,9.82q3.21,21,18.67,37,19.62,20.38,47.87,20.4t47.87-20.4q19.58-20.39,19.61-48.64t-19.61-48.34c-11.45-11.78-25.11-18.34-41-19.79h0c-1.08-.11-2.17-.18-3.3-.21.84,0,54.8.1,86.8,32.47C539.06,325.5,548.67,344.89,548.67,372.43Z"/><g class="cls-27"><path class="cls-28" d="M489.37,449a107.77,107.77,0,0,1-28.26,10.36c-102.53,7.25-93.28-111.66-93.28-111.66s0,.62,0,1.78c0,.67.07,1.32.1,2,.13,2,.35,4.61.77,7.83C372.43,388.77,391.46,463.21,489.37,449Z"/></g><g class="cls-29"><path class="cls-30" d="M548.67,372.43a103.24,103.24,0,0,1-8.2,23.88c-14.18-112.45-97.16-116.73-98.35-116.73h0c-1.08-.11-2.17-.18-3.3-.21.84,0,54.8.1,86.8,32.47C539.06,325.5,548.67,344.89,548.67,372.43Z"/></g><g class="cls-31"><path class="cls-32" d="M548.67,372.43s8.53-97.78-85-114c-23.7-4.11-95.79-2-95.79-2V233.92h67.58q47.63,0,81.73,33.23t34.06,80.56A119.85,119.85,0,0,1,548.67,372.43Z"/></g><g class="cls-33"><path class="cls-34" d="M460.67,459.41v0a119.61,119.61,0,0,1-25.26,2.65q-47.3,0-81.39-33.52t-34.1-80.86V177.17c3.29,0,7.68,2.61,11.63,6.59,5.22,5.26,9.64,12.87,9.64,19.83,0,23.95-.22,60-.8,114.15-.72,66.94,19.72,102.74,44,121.7h0C418.74,466.33,460.67,459.41,460.67,459.41Z"/></g><g class="cls-35"><path class="cls-36" d="M367.84,233.93s-3,32.63,33.67,45.44H367.83Z"/></g><path class="cls-37" d="M116.67,339.14a131.63,131.63,0,0,0-2.48,25.49c0,38.38,16.25,72.52,41.52,94.37l1.43,1.24a107.5,107.5,0,0,1-22.55-7.54h0a115.77,115.77,0,0,1-32.36-22.61Q77,405.58,70.69,373.25v0a117.1,117.1,0,0,1-2.16-22.7q0-46.74,33.67-79.83t80.43-33.13c3,0,5.86.1,8.74.32a110.7,110.7,0,0,1,33.19,7.38c-1,0-2-.1-3-.1-47.6,0-87.91,34.49-102,82.21a.74.74,0,0,0,0,.19c-.31.95-.6,1.9-.85,2.88-.16.51-.25,1.05-.37,1.55-.39,1.49-.74,2.95-1.05,4.44a7.15,7.15,0,0,0-.19.92c-.13.6-.26,1.17-.35,1.77Z"/><path class="cls-38" d="M297,350.51V462.93H249.13V350.51a67,67,0,0,0-19.38-48q-19.33-20.1-47.25-20.11t-47.27,20.11A68,68,0,0,0,118.79,330s0,0,0,0c.09-.41.22-.83.35-1.24s.25-.76.37-1.2c14-47.82,54.35-82.4,102-82.4,1,0,2,.07,3,.1a112.49,112.49,0,0,1,33.37,20.55c1.78,1.55,3.52,3.2,5.26,4.88Q297,303.74,297,350.51Z"/><path class="cls-39" d="M249.1,418.12v44.81H182.63a119.54,119.54,0,0,1-25.49-2.69c-26.07-21.79-42.95-56.5-42.95-95.61a129.62,129.62,0,0,1,2.51-25.52c.13-.7.22-1.2.29-1.49a71.56,71.56,0,0,0-1.11,12.89q0,27.89,19.31,47.75t47.28,19.86Z"/><g class="cls-40"><path class="cls-41" d="M257.93,265.8C152,249.43,124.39,313,119.51,327.55c14-47.82,54.35-82.4,102-82.4,1,0,2,.07,3,.1A112.49,112.49,0,0,1,257.93,265.8Z"/></g><g class="cls-42"><path class="cls-43" d="M184.72,462.93h-2.09a119.54,119.54,0,0,1-25.49-2.69c-26.07-21.79-42.95-56.5-42.95-95.61a129.62,129.62,0,0,1,2.51-25.52C114.74,350.63,107.42,416.6,184.72,462.93Z"/></g><g class="cls-44"><path class="cls-45" d="M249.1,462.93s-4.41-35.66-32.44-44.81h32.47Z"/></g><g class="cls-46"><path class="cls-47" d="M224.56,245.25s-136-19.92-153.87,128a117.1,117.1,0,0,1-2.16-22.7q0-46.74,33.67-79.83t80.43-33.13c3,0,5.86.1,8.74.32A110.7,110.7,0,0,1,224.56,245.25Z"/></g><g class="cls-48"><path class="cls-49" d="M273.22,373.21v89.71H248.79V350.51q0-27.86-19.37-48.05C277.27,317.54,273.22,373.21,273.22,373.21Z"/></g></g></g></g></g></svg>